<svg xmlns="http://www.w3.org/2000/svg" width="195" height="195" viewBox="0 0 195 195"><g id="Kompozycja_10" data-name="Kompozycja 10" transform="translate(97.5 97.5)"><g id="Kompozycja_10-2" data-name="Kompozycja 10" transform="translate(-97.5 -97.5)"><path id="Rectangle_437" data-name="Rectangle 437" fill="#fff" d="M0 0h195v195H0z"/><path id="Path_373" data-name="Path 373" d="M201.5 159.015v65a21.669 21.669 0 0018.572-21.444v-65a21.67 21.67 0 00-18.572 21.444" transform="translate(-150.431 -102.704)" fill="#a0d4df"/><path id="Path_374" data-name="Path 374" d="M299.206 137.571v65a21.669 21.669 0 0018.569 21.443v-65a21.669 21.669 0 00-18.569-21.444" transform="translate(-223.374 -102.704)" fill="#2ba96a"/><path id="Path_375" data-name="Path 375" d="M415.485 202.574v-65a21.669 21.669 0 00-18.572 21.444v65a21.67 21.67 0 0018.572-21.444" transform="translate(-296.317 -102.704)" fill="#8b3562"/><path id="Path_376" data-name="Path 376" d="M494.619 137.571v65a21.669 21.669 0 0018.569 21.443v-65a21.669 21.669 0 00-18.57-21.444" transform="translate(-369.261 -102.704)" fill="#ec7161"/><path id="Path_377" data-name="Path 377" d="M201.5 503.24h3.007l6.124 14.653 6.1-14.653h3.007v19.137h-3.007v-12.658l-4.921 12.657h-2.379l-4.921-12.794v12.794h-3.01z" transform="translate(-150.43 -375.696)" fill="#1c294a"/><path id="Path_378" data-name="Path 378" d="M288.5 511.769l-1.914 1.012v9.6H283.6v-7.983l-1.75.93v-2.242l1.75-.93v-8.916h2.98v7.3l1.914-1.011z" transform="translate(-210.42 -375.696)" fill="#1c294a"/><path id="Path_379" data-name="Path 379" d="M322.634 533.884c0-2.324-1.34-4.046-3.745-4.046s-3.745 1.723-3.745 4.046 1.34 4.046 3.745 4.046 3.745-1.722 3.745-4.046m-10.471 0a6.725 6.725 0 116.725 6.7 6.391 6.391 0 01-6.725-6.7" transform="translate(-233.047 -393.574)" fill="#1c294a"/><path id="Path_380" data-name="Path 380" d="M373.859 533.884c0-3.964 2.378-6.7 6.342-6.7 3.554 0 5.769 1.941 6.042 4.866h-2.98c-.328-1.449-1.258-2.214-3.062-2.214-2.1 0-3.362 1.449-3.362 4.046s1.258 4.046 3.362 4.046c1.8 0 2.734-.738 3.062-2.078h2.98c-.274 2.843-2.488 4.73-6.042 4.73-3.964 0-6.342-2.734-6.342-6.7" transform="translate(-279.106 -393.574)" fill="#1c294a"/><path id="Path_381" data-name="Path 381" d="M431.949 510.042h2.98v12.74h-2.98zm-.71-4.046a2.214 2.214 0 112.214 2.215 2.154 2.154 0 01-2.214-2.211" transform="translate(-321.943 -376.101)" fill="#1c294a"/><path id="Path_382" data-name="Path 382" d="M460.9 527.515h2.98v1.777a4.531 4.531 0 014.156-2.105c3.062 0 4.648 1.722 4.648 5.057v8.01H469.7v-6.643c0-2.707-.71-3.882-2.788-3.882-1.941 0-3.035 1.285-3.035 3.527v7H460.9z" transform="translate(-344.087 -393.574)" fill="#1c294a"/><path id="Path_383" data-name="Path 383" d="M533.193 528.478v12.794a6.069 6.069 0 01-1.668 4.538 6.217 6.217 0 01-4.319 1.476 6.679 6.679 0 01-4.374-1.312 4.338 4.338 0 01-1.422-3.308h3.007c.136 1.394.82 2.16 2.734 2.16 1.777 0 3.062-1.066 3.062-3.773v-1.613a4.438 4.438 0 01-4.1 2.105c-3.144 0-4.7-2.242-4.7-5.3v-7.764h2.98v7.135c0 1.887.629 3.308 2.763 3.308 2.078 0 3.062-1.668 3.062-3.855v-6.589z" transform="translate(-389.262 -394.537)" fill="#1c294a"/><g id="Group_61" data-name="Group 61" transform="translate(75.906 152.527)" fill="#1c294a"><path id="Path_384" data-name="Path 384" d="M309.653 607.938h-1.006a4.29 4.29 0 01-1.507 2.539 4.578 4.578 0 01-2.943.92 4.865 4.865 0 01-2.473-.614 4.248 4.248 0 01-1.645-1.684 4.95 4.95 0 01-.581-2.4 5.362 5.362 0 01.555-2.421 4.336 4.336 0 011.645-1.788 4.915 4.915 0 012.63-.672 4.79 4.79 0 011.965.392 3.545 3.545 0 011.4 1.071 2.866 2.866 0 01.6 1.5h-1.643a1.919 1.919 0 00-.77-1.168 2.559 2.559 0 00-1.553-.45 3.3 3.3 0 00-1.808.47 2.868 2.868 0 00-1.1 1.267 4.131 4.131 0 00-.346 1.774 3.68 3.68 0 00.372 1.723 2.956 2.956 0 001.1 1.214 3.055 3.055 0 001.651.444 3.107 3.107 0 001.867-.529 2.713 2.713 0 001-1.586h-1.761v-1.34h4.346z" transform="translate(-299.497 -601.814)"/><path id="Path_385" data-name="Path 385" d="M343.763 620.108a2.668 2.668 0 01-1.018-1.142 3.754 3.754 0 01-.346-1.638 3.555 3.555 0 01.365-1.625 2.816 2.816 0 011.051-1.149 3 3 0 011.612-.424 2.425 2.425 0 011.122.261 1.9 1.9 0 01.783.718v-.822h1.423v6.083h-1.423v-.822a1.835 1.835 0 01-.816.711 2.578 2.578 0 01-1.129.268 3.019 3.019 0 01-1.624-.419zm3.172-1.4a2.3 2.3 0 000-2.768 1.867 1.867 0 00-2.636-.006 2.266 2.266 0 000 2.78 1.868 1.868 0 002.636-.006z" transform="translate(-331.525 -611.008)"/><path id="Path_386" data-name="Path 386" d="M374.688 602.7h1.422v9.137h-1.423z" transform="translate(-355.63 -602.476)"/><path id="Path_387" data-name="Path 387" d="M391.632 617.8h-4.516a1.455 1.455 0 00.47 1.1 1.809 1.809 0 001.227.385 1.837 1.837 0 00.849-.17 1.183 1.183 0 00.509-.522h1.436a2.079 2.079 0 01-.92 1.39 3.191 3.191 0 01-1.873.542 3.016 3.016 0 01-2.271-.862 3.212 3.212 0 01-.836-2.336 3.6 3.6 0 01.378-1.69 2.675 2.675 0 011.07-1.115 3.208 3.208 0 011.606-.392 3.089 3.089 0 011.521.365 2.6 2.6 0 011.025 1.018 3.025 3.025 0 01.365 1.5q-.001.236-.04.787zm-1.357-1.083a1.464 1.464 0 00-.411-1.083 1.575 1.575 0 00-1.129-.379 1.648 1.648 0 00-1.175.406 1.426 1.426 0 00-.444 1.057z" transform="translate(-363.855 -611.007)"/><path id="Path_388" data-name="Path 388" d="M414.654 614.518h1.423v1.175a1.562 1.562 0 01.613-.933 1.714 1.714 0 011.005-.32 2.4 2.4 0 01.561.052v1.308a4.955 4.955 0 00-.561-.025 1.421 1.421 0 00-1.188.555 2.541 2.541 0 00-.431 1.586v2.684h-1.423z" transform="translate(-385.468 -611.239)"/><path id="Path_389" data-name="Path 389" d="M432.465 604.765a1.066 1.066 0 111.514 0 1.088 1.088 0 01-1.514 0zm.039 1.181h1.423v6.083H432.5z" transform="translate(-398.54 -602.667)"/><path id="Path_390" data-name="Path 390" d="M445.887 620.108a2.667 2.667 0 01-1.018-1.142 3.752 3.752 0 01-.346-1.638 3.556 3.556 0 01.365-1.625 2.818 2.818 0 011.051-1.149 3 3 0 011.612-.424 2.424 2.424 0 011.123.261 1.9 1.9 0 01.783.718v-.822h1.422v6.083h-1.423v-.822a1.835 1.835 0 01-.816.711 2.578 2.578 0 01-1.129.268 3.019 3.019 0 01-1.624-.418zm3.172-1.4a2.3 2.3 0 000-2.767 1.867 1.867 0 00-2.636-.006 2.266 2.266 0 000 2.78 1.868 1.868 0 002.636-.006z" transform="translate(-407.766 -611.008)"/></g></g></g></svg>